<svg width="20" height="20" viewBox="0 0 20 20" fill="none" xmlns="http://www.w3.org/2000/svg">
<g clip-path="url(#clip0_2104_38)">
<path d="M16.2866 5.32371L13.5002 4.56314C13.3851 4.53173 13.265 4.52329 13.1466 4.53831C13.0283 4.55333 12.9141 4.5915 12.8105 4.65066C12.7069 4.70982 12.616 4.7888 12.543 4.8831C12.4699 4.97739 12.4161 5.08515 12.3847 5.20023L12.319 5.44108C12.2481 5.70059 12.2754 5.98444 12.4231 6.20894C12.6125 6.49574 12.7255 6.82611 12.7516 7.16879C12.7777 7.51147 12.7159 7.85513 12.572 8.16727C12.2062 8.97581 11.3174 9.45604 10.4401 9.32438C10.1563 9.28301 9.88453 9.18186 9.64274 9.02762C9.40095 8.87338 9.19467 8.66957 9.03753 8.42966C8.88039 8.18974 8.77597 7.9192 8.73119 7.63592C8.68641 7.35265 8.70228 7.06309 8.77775 6.7864C8.93355 6.21562 9.31832 5.77056 9.80614 5.52018C10.0472 5.39663 10.2375 5.1929 10.3089 4.93146L10.3846 4.65427C10.416 4.53917 10.4244 4.419 10.4094 4.30064C10.3944 4.18228 10.3562 4.06804 10.297 3.96445C10.2378 3.86085 10.1587 3.76994 10.0644 3.69689C9.97007 3.62384 9.86227 3.57009 9.74716 3.53872L6.96108 2.77824C6.61994 2.68512 6.25578 2.73134 5.94871 2.90672C5.64164 3.0821 5.41682 3.37227 5.32371 3.71342L2.77824 13.0389C2.68512 13.3801 2.73134 13.7442 2.90672 14.0513C3.08209 14.3584 3.37227 14.5832 3.71342 14.6763L13.0389 17.2218C13.3801 17.3149 13.7442 17.2687 14.0513 17.0933C14.3584 16.9179 14.5832 16.6277 14.6763 16.2866L17.2218 6.96108C17.3149 6.61994 17.2687 6.25578 17.0933 5.94871C16.9179 5.64164 16.6277 5.41682 16.2866 5.32371Z" stroke="#5FD8EB" stroke-width="0.5" stroke-linecap="round" stroke-linejoin="round"/>
</g>
<defs>
<clipPath id="clip0_2104_38">
<rect width="16" height="16" fill="white" transform="translate(4.38893 0.175751) rotate(15.2674)"/>
</clipPath>
</defs>
</svg>
