<svg width="20" height="20" viewBox="0 0 20 20" fill="none" xmlns="http://www.w3.org/2000/svg">
<g clip-path="url(#clip0_2104_18)">
<path d="M8.78834 17.4015C12.8761 18.0707 16.7323 15.2994 17.4015 11.2117C18.0707 7.12394 15.2994 3.2677 11.2117 2.59852C7.12394 1.92934 3.2677 4.70062 2.59852 8.78834C1.92934 12.8761 4.70062 16.7323 8.78834 17.4015Z" fill="#4FD1D9"/>
<path d="M8.12698 6.12146L7.23564 6.30487L7.16391 5.6598L8.36747 5.42617L9.2063 5.5635L8.64086 9.01752L7.67867 8.86L8.12698 6.12146ZM10.9847 9.40121L11.0614 8.93245L11.5701 8.6104C12.444 8.06948 12.8746 7.75999 12.9393 7.36524C12.9837 7.09385 12.8473 6.84354 12.4526 6.77891C12.1565 6.73045 11.8609 6.83405 11.668 6.92914L11.5389 6.32534C11.8426 6.17239 12.2615 6.08899 12.7303 6.16572C13.5198 6.29497 13.8665 6.80772 13.7655 7.42451C13.6726 7.99195 13.1765 8.39205 12.5897 8.72665L12.2246 8.94554L13.5322 9.1596L13.4272 9.80106L10.9847 9.40121ZM6.41206 12.8832C6.54797 12.9815 6.84851 13.1573 7.19391 13.2139C7.61333 13.2825 7.86769 13.1215 7.90807 12.8748C7.96058 12.5541 7.63941 12.3495 7.26934 12.2889L6.92393 12.2324L7.01683 11.6649L7.33756 11.7174C7.60895 11.7619 7.9705 11.7197 8.01897 11.4237C8.05128 11.2263 7.90281 11.05 7.55741 10.9934C7.26135 10.945 6.9451 11.0199 6.78495 11.0696L6.72982 10.478C6.97205 10.391 7.38699 10.3322 7.85575 10.409C8.5959 10.5301 8.95474 10.9689 8.878 11.4376C8.82145 11.783 8.55094 12.0427 8.11133 12.0974C8.51863 12.2401 8.81557 12.5927 8.74287 13.0368C8.64594 13.6289 8.0345 13.9595 7.14632 13.8141C6.70223 13.7414 6.32768 13.5534 6.1505 13.3977L6.41206 12.8832ZM11.4845 14.5496L11.6178 13.7354L9.9401 13.4608L10.0249 12.9427L11.7992 11.0798L12.8847 11.2576L12.5535 13.2806L12.9976 13.3533L12.8967 13.9701L12.4526 13.8974L12.3233 14.6869L11.4845 14.5496ZM11.7187 13.1186L11.8439 12.3538C11.8763 12.1564 11.9126 11.9344 11.9736 11.7164L11.949 11.7124C11.7892 11.9142 11.6582 12.0954 11.4985 12.2973L10.8799 12.9813L11.7187 13.1186Z" fill="white"/>
</g>
<defs>
<clipPath id="clip0_2104_18">
<rect width="16" height="16" fill="white" transform="translate(3.39752 0.812653) rotate(9.29713)"/>
</clipPath>
</defs>
</svg>
