<svg width="17" height="17" viewBox="0 0 17 17" fill="none" xmlns="http://www.w3.org/2000/svg">
<g clip-path="url(#clip0_2104_40)">
<path d="M10.9807 12.7338C9.68083 12.7551 8.5687 12.0232 8.55437 11.1483C8.54005 10.2735 9.62762 9.50555 10.9274 9.48427C12.2273 9.46299 13.3394 10.1949 13.3537 11.0698C13.3431 11.9451 12.2805 12.7126 10.9807 12.7338Z" fill="#E07E1E"/>
<path d="M10.9311 9.70924C12.206 9.68837 13.1177 10.3985 13.1283 11.0485C13.139 11.6984 12.251 12.438 10.9761 12.4589C9.70132 12.4797 8.78957 11.7696 8.77893 11.1197C8.76829 10.4698 9.6563 9.73012 10.9311 9.70924ZM10.9234 9.23431C9.49854 9.25763 8.33762 10.1268 8.3544 11.1516C8.37118 12.1765 9.55993 13.0071 10.9847 12.9838C12.4096 12.9605 13.5705 12.0914 13.5537 11.0665C13.5365 10.0166 12.3482 9.21098 10.9234 9.23431Z" fill="#3E4347"/>
<path d="M7.12802 6.49607C5.95317 6.51531 4.9902 5.73097 4.97424 4.7561C4.95828 3.78123 5.89506 2.96579 7.0699 2.94655C8.24474 2.92731 9.20771 3.71165 9.22367 4.68652C9.23963 5.66139 8.27786 6.47725 7.12802 6.49607Z" fill="#E07E1E"/>
<path d="M7.07399 3.19651C8.09885 3.17973 8.9852 3.86531 8.99829 4.66521C9.0118 5.4901 8.14797 6.17933 7.1231 6.19611C6.09824 6.21289 5.2119 5.52731 5.1988 4.72742C5.18571 3.92752 6.02413 3.2137 7.07399 3.19651ZM7.06499 2.64659C5.76516 2.66787 4.73044 3.60993 4.74886 4.73478C4.76728 5.85963 5.83228 6.76732 7.13211 6.74604C8.43193 6.72475 9.46665 5.78269 9.44823 4.65784C9.42981 3.53299 8.36481 2.6253 7.06499 2.64659Z" fill="#3E4347"/>
<path d="M11.504 8.04963C11.0041 8.05782 10.5001 7.81604 10.1178 7.37224C9.76126 6.97802 9.55269 6.45637 9.4941 5.93226C9.46051 5.40773 9.57812 4.95575 9.84777 4.62629C10.0928 4.32224 10.4403 4.16653 10.8153 4.16039C11.3152 4.1522 11.8192 4.39398 12.2015 4.83778C12.558 5.232 12.7666 5.75366 12.8252 6.27777C12.8588 6.80229 12.7412 7.25427 12.4715 7.58373C12.2261 7.86279 11.904 8.04309 11.504 8.04963Z" fill="#E07E1E"/>
<path d="M10.844 4.38495C11.2689 4.37799 11.7225 4.59559 12.054 4.99022C12.3601 5.36026 12.5675 5.80692 12.6002 6.28145C12.6322 6.70598 12.5388 7.10757 12.3183 7.38621C12.0732 7.69027 11.7495 7.77058 11.5245 7.77426C11.0996 7.78122 10.646 7.56362 10.3145 7.16899C10.0084 6.79895 9.80102 6.35229 9.76825 5.87776C9.73629 5.45323 9.82973 5.05164 10.0502 4.773C10.2953 4.46894 10.619 4.38863 10.844 4.38495ZM10.8349 3.83502C10.41 3.84198 10.0129 4.02351 9.71869 4.37837C9.05688 5.18931 9.1802 6.61249 9.99523 7.52426C10.4538 8.04183 11.0082 8.30779 11.5331 8.29919C11.9581 8.29223 12.3551 8.11071 12.6494 7.75584C13.3112 6.9449 13.1879 5.52173 12.3728 4.60995C11.9393 4.09198 11.3599 3.82643 10.8349 3.83502Z" fill="#3E4347"/>
<path d="M7.44054 13.3669C7.11558 13.3722 6.7894 13.3025 6.43699 13.1583C5.48057 12.7739 4.81633 11.9097 5.00566 11.2565C5.12451 10.8795 5.54536 10.6225 6.12028 10.6131C6.44524 10.6078 6.77142 10.6775 7.12383 10.8217C7.60204 11.0139 8.03271 11.3569 8.31382 11.7274C8.54452 12.0736 8.65023 12.422 8.55475 12.6986C8.43631 13.1005 8.01546 13.3575 7.44054 13.3669Z" fill="#E07E1E"/>
<path d="M6.15019 10.9127C6.45015 10.9078 6.75134 10.9778 7.05334 11.0979C7.50656 11.2905 7.88642 11.5843 8.11712 11.9306C8.2966 12.2027 8.37568 12.4515 8.32855 12.6272C8.25765 12.8784 7.88557 13.0596 7.43563 13.0669C7.13567 13.0718 6.83448 13.0018 6.53248 12.8817C5.65145 12.5211 5.13924 11.7793 5.25727 11.3524C5.32816 11.1012 5.70025 10.92 6.15019 10.9127ZM6.14078 10.3378C5.49086 10.3484 4.97084 10.657 4.80405 11.1597C4.56678 11.9387 5.28346 12.9521 6.36609 13.4095C6.7435 13.5533 7.11968 13.6222 7.44463 13.6168C8.09455 13.6062 8.61456 13.2977 8.78136 12.7949C9.01863 12.0159 8.30195 11.0025 7.21932 10.5451C6.84191 10.4013 6.46573 10.3324 6.14078 10.3378Z" fill="#3E4347"/>
<path d="M8.82414 4.71807C8.04474 4.4558 7.19199 4.29474 6.26711 4.30988C5.99215 4.31438 5.74259 4.34347 5.49303 4.37256C5.9618 5.51504 6.20723 6.76119 6.22811 8.03602C6.25144 9.46083 5.9744 10.8655 5.44493 12.1244C5.74571 12.1695 6.07067 12.1641 6.39562 12.1588C6.82057 12.1519 7.22051 12.1453 7.59505 12.1142C7.45984 11.4913 7.3992 10.8422 7.38815 10.1673C7.35582 8.19258 7.84965 6.28423 8.82414 4.71807ZM3.77604 4.87574C1.36978 6.04029 0.711623 8.6014 0.711623 8.6014C0.711623 8.6014 0.889056 8.74852 0.966911 8.92227C1.04436 9.07102 0.520654 9.1546 0.674727 9.40211C1.11113 10.0951 2.37774 11.0995 3.68739 11.6781C4.24472 10.5938 4.52462 9.36408 4.50334 8.06426C4.48492 6.93941 4.24194 5.84324 3.77604 4.87574ZM15.2101 8.38902C15.1966 7.56413 16.1612 6.92325 15.1671 5.76437C15.1671 5.76437 14.6278 6.42329 14.1099 6.85682C14.0902 7.18219 14.0709 7.53255 14.0762 7.85751C14.091 8.75739 14.2307 9.65522 14.4946 10.501C14.9736 10.7432 15.2527 10.9887 15.2527 10.9887C16.2087 9.82286 15.2244 9.2639 15.2101 8.38902ZM12.4343 6.83425C11.7249 6.27079 11.0164 5.75732 10.2346 5.34506C9.85061 6.32648 9.64283 7.38003 9.66083 8.47988C9.67843 9.55473 9.89519 10.5763 10.2857 11.5201C11.0065 11.2582 11.7753 10.8706 12.6919 10.3555C12.5039 9.55848 12.4154 8.73482 12.4015 7.88493C12.3961 7.55997 12.39 7.18502 12.4343 6.83425Z" fill="#F29A2E"/>
<path d="M4.72831 8.06057C4.75041 9.41038 4.44632 10.6905 3.914 11.7744C4.2914 11.9182 4.71839 12.0363 5.19456 12.1035C5.72484 10.8946 6.02728 9.51449 6.00354 8.06469C5.98226 6.76486 5.71224 5.54412 5.24429 4.45163C4.79558 4.53399 4.37268 4.66593 4.00019 4.82205C4.44028 5.73997 4.70866 6.86073 4.72831 8.06057Z" fill="white"/>
<path d="M5.46804 4.37296C5.39305 4.37419 5.31847 4.40042 5.21848 4.40205C5.68643 5.49454 5.95645 6.71528 5.97773 8.01511C6.00188 9.48991 5.69943 10.87 5.16874 12.0539C5.24414 12.0777 5.34413 12.076 5.41912 12.0748C5.94858 10.816 6.22562 9.41124 6.20229 7.98643C6.20723 6.76118 5.9368 5.51544 5.46804 4.37296ZM4.72831 8.06057C4.70907 6.88572 4.44069 5.76497 3.99978 4.79706C3.9252 4.82328 3.85062 4.84951 3.77645 4.90073C4.24235 5.86823 4.48533 6.9644 4.50375 8.08925C4.52503 9.38907 4.24512 10.6188 3.6878 11.7031C3.7632 11.7269 3.83901 11.7756 3.91441 11.7994C4.44592 10.6655 4.75041 9.41039 4.72831 8.06057Z" fill="#3E4347"/>
<path d="M7.61312 10.1636C7.62377 10.8135 7.7094 11.4622 7.81962 12.0855C8.5687 12.0232 9.29155 11.8864 10.0624 11.6237C9.67185 10.68 9.42928 9.60882 9.41128 8.50897C9.39204 7.33412 9.599 6.23059 9.98299 5.24917C9.68016 5.07911 9.35275 4.93445 9.02575 4.81478C8.12502 6.30473 7.58038 8.16389 7.61312 10.1636Z" fill="white"/>
<path d="M7.61312 10.1636C7.58038 8.16388 8.12502 6.30472 9.05074 4.81436C8.97534 4.79059 8.89994 4.76683 8.82414 4.71806C7.84964 6.28422 7.35582 8.19256 7.38815 10.1673C7.39879 10.8172 7.45943 11.4663 7.59505 12.1142C7.67004 12.1129 7.74503 12.1117 7.81961 12.0855C7.7094 11.4622 7.62376 10.8135 7.61312 10.1636ZM10.2346 5.34505C10.1588 5.29629 10.0834 5.27252 10.0326 5.22334C9.64858 6.20476 9.44162 7.3083 9.46086 8.48314C9.47928 9.60799 9.69644 10.6546 10.1119 11.5979L10.3357 11.5192C9.94518 10.5755 9.72802 9.52891 9.71083 8.47905C9.64282 7.38001 9.82561 6.32688 10.2346 5.34505Z" fill="#3E4347"/>
<path d="M12.7633 7.0789C12.7379 7.05431 12.6875 7.03013 12.6617 6.98055C12.642 7.30592 12.6219 7.60628 12.6268 7.90624C12.6399 8.70614 12.728 9.5048 12.9153 10.2518C12.9649 10.226 13.014 10.1752 13.0886 10.149C13.2865 10.0207 13.7643 10.1879 14.2176 10.3805C14.0045 9.58392 13.866 8.76107 13.8517 7.88619C13.8472 7.61123 13.8677 7.33585 13.8632 7.06089C13.4919 7.292 13.1182 7.37313 12.7633 7.0789Z" fill="white"/>
<path d="M12.6268 7.90624C12.6219 7.60628 12.642 7.30591 12.6371 7.00595C12.5613 6.95719 12.4851 6.88343 12.4093 6.83466C12.3904 7.21002 12.3711 7.56038 12.3769 7.91034C12.3904 8.73523 12.4789 9.55889 12.6674 10.3809C12.7415 10.3297 12.8161 10.3035 12.8903 10.2522C12.7276 9.4798 12.6399 8.70614 12.6268 7.90624ZM14.0853 6.88223C14.0115 6.95845 13.9123 7.01008 13.8382 7.0613C13.8177 7.33667 13.8222 7.61163 13.8267 7.8866C13.841 8.76148 13.9799 9.60932 14.1926 10.3809C14.2934 10.4293 14.3942 10.4777 14.47 10.5264C14.2061 9.68063 14.0664 8.78279 14.0517 7.88291C14.0459 7.53296 14.0656 7.20759 14.0853 6.88223Z" fill="#3E4347"/>
<path d="M6.53874 7.1558C5.82611 7.91757 5.70355 9.5948 6.93003 9.67474C8.40688 9.77557 9.1502 10.8886 9.86282 10.1268C10.5754 9.36501 10.3067 8.21926 9.44244 7.35829C8.57782 6.47233 7.27636 6.39363 6.53874 7.1558Z" fill="#E07E1E"/>
<path d="M6.56373 7.1554C6.19492 7.53649 6.02895 8.08928 6.06213 8.58881C6.09122 8.83837 6.1703 9.0871 6.34814 9.25922C6.50099 9.43174 6.72719 9.50304 6.97756 9.52395C7.5279 9.53994 8.0561 9.73132 8.53472 9.94851C8.78633 10.0444 9.01293 10.1407 9.23872 10.187C9.4641 10.2083 9.61285 10.1309 9.75997 9.95345C9.90708 9.77602 10.0038 9.57441 10.0501 9.34862C10.0964 9.12283 10.0677 8.89827 9.98906 8.67453C9.85671 8.22664 9.54979 7.80661 9.21911 7.46197C8.88883 7.14234 8.45938 6.87433 7.9824 6.75713C7.73162 6.71123 7.48165 6.71532 7.2325 6.7694C6.98376 6.84849 6.73584 6.97756 6.56373 7.1554ZM6.53833 7.13082C6.90673 6.72473 7.42838 6.51616 8.00331 6.50675C8.55323 6.49775 9.13184 6.7133 9.56333 7.10629C9.96942 7.47469 10.3276 7.9689 10.4869 8.54136C10.5668 8.84009 10.5718 9.14005 10.5017 9.44124C10.4316 9.74243 10.2861 10.0198 10.0644 10.2235C9.95228 10.3423 9.81793 10.4379 9.66899 10.505C9.51982 10.5575 9.34526 10.5853 9.19487 10.5628C8.89409 10.5177 8.64167 10.3718 8.41506 10.2755C7.93644 10.0583 7.48323 9.86571 6.98206 9.79891C6.85667 9.77596 6.70628 9.75342 6.58007 9.68048C6.45386 9.60753 6.32724 9.50959 6.25061 9.41083C6.07154 9.16373 6.01705 8.88959 6.01255 8.61462C6.00804 8.33966 6.07853 8.06347 6.17443 7.81187C6.22033 7.56108 6.34163 7.33406 6.53833 7.13082Z" fill="#3E4347"/>
<path d="M2.85885 9.94143C3.67336 9.92809 4.32211 9.21222 4.30787 8.34249C4.29363 7.47276 3.62179 6.77851 2.80728 6.79185C1.99277 6.80518 1.34402 7.52105 1.35826 8.39078C1.3725 9.26051 2.04434 9.95476 2.85885 9.94143Z" fill="#FCFCFA"/>
<path d="M2.85066 9.4415C3.41668 9.43223 3.86765 8.94348 3.85793 8.34986C3.84821 7.75623 3.38148 7.28252 2.81547 7.29178C2.24945 7.30105 1.79848 7.78979 1.8082 8.38342C1.81792 8.97705 2.28465 9.45076 2.85066 9.4415Z" fill="#29251C"/>
</g>
<defs>
<clipPath id="clip0_2104_40">
<rect width="16" height="16" fill="white" transform="translate(0 0.261932) rotate(-0.938043)"/>
</clipPath>
</defs>
</svg>
