<svg width="20" height="20" viewBox="0 0 20 20" fill="none" xmlns="http://www.w3.org/2000/svg">
<g clip-path="url(#clip0_2104_21)">
<path d="M17.1328 14.1381L13.9875 13.2312L15.3797 18.8363L4.8403 15.7975L7.84672 12.8998C7.46159 12.9947 7.07444 13.0403 6.68526 13.0365C6.29608 13.0327 5.9106 12.9784 5.52882 12.8738C4.93328 12.7021 4.40525 12.4278 3.94472 12.0511C3.48418 11.6744 3.11574 11.2321 2.83938 10.7242C2.56303 10.2163 2.38728 9.66966 2.31215 9.08426C2.23702 8.49886 2.28353 7.90518 2.45168 7.3032C2.62339 6.70767 2.8976 6.17963 3.27431 5.7191C3.65102 5.25856 4.09333 4.89012 4.60123 4.61376C5.10914 4.33741 5.65579 4.16167 6.24118 4.08653C6.82658 4.0114 7.42027 4.05791 8.02224 4.22606C8.44762 4.34871 8.84568 4.52853 9.21641 4.76552C9.58714 5.0025 9.91981 5.29627 10.2144 5.64683L10.9785 2.99697L19.6262 5.4904L17.1328 14.1381ZM5.80586 11.9129C6.27128 12.0471 6.73192 12.0851 7.18778 12.0268C7.64365 11.9685 8.06895 11.8282 8.46368 11.606C8.85842 11.3837 9.20108 11.0977 9.49167 10.7478C9.78227 10.398 9.99788 9.98856 10.1385 9.51958C10.2713 9.05917 10.3085 8.60103 10.2502 8.14517C10.192 7.6893 10.0549 7.26222 9.83911 6.86392C9.6233 6.46563 9.33725 6.12296 8.98095 5.83593C8.62465 5.5489 8.21273 5.33256 7.7452 5.18692C7.27978 5.05272 6.81914 5.01476 6.36328 5.07304C5.90741 5.13131 5.48283 5.26908 5.08954 5.48633C4.69625 5.70358 4.35359 5.98964 4.06155 6.34449C3.76951 6.69935 3.55318 7.11127 3.41253 7.58025C3.27834 8.04566 3.24038 8.5063 3.29866 8.96216C3.35693 9.41803 3.4947 9.84261 3.71195 10.2359C3.9292 10.6292 4.21525 10.9719 4.57011 11.2639C4.92497 11.5559 5.33689 11.7723 5.80586 11.9129ZM13.9903 17.395C13.6863 16.1744 13.3859 14.9604 13.0891 13.7527C12.7922 12.5451 12.4918 11.331 12.1879 10.1105C11.2807 10.9818 10.3801 11.8496 9.48584 12.7138C8.59162 13.578 7.69095 14.4458 6.78383 15.3171L13.9903 17.395ZM18.3883 6.1742L11.6623 4.23487L10.9112 6.83969C11.1083 7.30305 11.2244 7.78373 11.2597 8.28175C11.295 8.77977 11.2444 9.27472 11.108 9.7666L12.7419 8.18876L13.709 12.1102L16.4489 12.9002L18.3883 6.1742Z" fill="#FFED63"/>
</g>
<defs>
<clipPath id="clip0_2104_21">
<rect width="16" height="16" fill="white" transform="translate(4.52953 0.0967712) rotate(16.0841)"/>
</clipPath>
</defs>
</svg>
