<svg width="16" height="16" viewBox="0 0 16 16" fill="none" xmlns="http://www.w3.org/2000/svg">
<path d="M9.67149 2.415C5.85399 0.401001 2.37849 1.836 1.12649 3.7975C0.715994 4.4385 0.425994 5.605 0.436994 6.53C0.459494 8.4335 1.51299 10.555 3.78699 12.695C6.58449 15.3275 9.43949 15.0975 10.347 14.8765C11.4895 14.5975 12.2555 14.36 12.138 13.295C12.123 13.155 12.003 12.901 11.822 12.79C11.241 12.4375 10.027 12.254 9.45599 11.405C8.62599 10.169 9.65799 10.1065 10.647 10.635C11.7055 11.2015 12.3105 11.555 13.373 11.4575C14.152 11.3865 15.2845 10.9165 15.438 9.6025C15.576 8.414 13.841 4.615 9.67099 2.415M11.2295 8.875C10.937 9.32 10.2145 9.1675 9.74099 8.7475C9.26749 8.3275 9.20599 7.6275 9.51299 7.3525C9.82549 7.074 10.413 7.1375 10.887 7.5575C11.3595 7.9785 11.4585 8.525 11.2295 8.875Z" fill="#AC5810"/>
<path d="M9.839 1.9615C6.021 -0.0525031 2.537 1.505 1.285 3.4665C0.0314974 5.429 0.576497 9.0625 3.954 12.2415C6.751 14.8735 9.6065 14.644 10.514 14.4225C11.6565 14.144 12.4625 13.6 11.96 12.9065C11.6135 12.4275 10.3725 12.0665 9.6235 10.9515C8.7935 9.715 9.8265 9.6525 10.815 10.1815C11.8735 10.7475 12.479 11.1015 13.5415 11.004C14.32 10.9325 15.4975 10.33 15.4625 9.1125C15.426 7.916 14.009 4.1625 9.839 1.9615ZM11.5955 8.84C11.2395 9.225 10.4805 9.12 9.9005 8.6075C9.322 8.094 9.1405 7.3665 9.497 6.9825C9.853 6.5975 10.612 6.7025 11.192 7.215C11.772 7.7275 11.952 8.4565 11.5955 8.84Z" fill="#F2A259"/>
<path d="M5.9525 10.5825C6.0965 10.215 7.119 9.8125 8.059 10.481C8.3225 10.6685 8.6525 11.146 8.619 11.746C8.509 13.706 5.2925 12.2735 5.9525 10.5825Z" fill="#EEEEEE"/>
<path d="M2.9665 7.25899C3.295 6.73399 4.094 6.674 4.7925 7.1275C5.415 7.531 5.935 8.525 5.1675 9.175C4.7565 9.5235 4.045 9.30749 3.6065 8.97099C3.074 8.56499 2.6125 7.82399 2.9665 7.25899Z" fill="#2686C6"/>
<path d="M7.209 2.6775C7.31 2.2615 8.016 2.19 8.516 2.3765C9.38 2.699 9.771 3.554 9.4525 4.03C8.986 4.7265 7.97 4.4875 7.585 4.089C6.9315 3.414 7.124 3.0265 7.209 2.6775Z" fill="#FFEE58"/>
<path d="M12.214 4.715C12.906 5.03 12.996 5.5285 12.864 5.8925C12.781 6.1175 12.6125 6.426 12.2675 6.454C11.6835 6.5015 11.6025 6.019 11.186 5.8865C10.836 5.775 10.6935 5.2965 10.831 4.975C10.959 4.679 11.3315 4.3125 12.214 4.715Z" fill="#7CB342"/>
<path d="M8.37149 12.12C8.19899 12.2765 7.59999 12.469 6.83999 11.994C6.58249 11.8325 6.33599 11.599 6.19749 11.249C6.08899 10.974 6.11249 10.709 6.16149 10.5915C6.30149 10.2525 6.51499 10.19 6.51499 10.19C6.29999 10.175 5.89399 10.46 5.82649 10.834C5.80499 10.9515 5.65349 11.686 6.62749 12.3525C7.46599 12.9275 8.70649 12.874 8.62499 11.7165C8.57814 11.8714 8.49089 12.0108 8.37149 12.12Z" fill="#B0B0B0"/>
<path d="M5.53249 8.215C5.50899 8.6615 4.98599 8.8965 4.69499 8.8975C3.87099 8.8985 3.13099 8.381 3.07999 7.46C3.07099 7.295 3.15249 7.0565 3.15249 7.0565C3.04349 7.1025 2.88999 7.3375 2.85749 7.47C2.66499 8.265 3.46599 9.1915 4.30999 9.379C4.73749 9.474 5.27649 9.3275 5.47249 8.945C5.61249 8.6725 5.58499 8.439 5.53249 8.215Z" fill="#01579B"/>
<path d="M8.41499 4.08999C7.85499 4.02599 7.54499 3.65999 7.46399 3.57599C7.24099 3.34349 7.10399 3.11749 7.18399 2.78249C7.20899 2.67499 7.26999 2.53749 7.34499 2.45999C7.25399 2.48999 7.10649 2.68599 7.05999 2.79249C7.01249 2.89849 6.83999 3.29749 7.20999 3.78849C7.43849 4.09349 7.83749 4.43749 8.42749 4.51999C8.84599 4.57849 9.14649 4.42849 9.39649 4.18499C9.56649 4.01849 9.64149 3.64349 9.53999 3.44999C9.55649 3.59099 9.29749 4.19099 8.41499 4.08999Z" fill="#DF7F14"/>
<path d="M13.0215 5.60649C12.9761 5.46264 12.904 5.32863 12.809 5.21149C12.8725 5.33399 12.999 5.70149 12.734 6.05849C12.6 6.23849 12.1975 6.45999 11.7225 6.07499C11.5825 5.96099 11.47 5.84849 11.2175 5.75599C10.5765 5.51999 10.856 4.86749 11.079 4.66499C10.904 4.75649 10.745 4.91999 10.679 5.16999C10.586 5.51849 10.815 5.88399 11.1625 6.05849C11.5575 6.25749 11.685 6.64099 12.2265 6.64099C12.2538 6.64099 12.283 6.63983 12.314 6.63749C12.679 6.60649 12.8325 6.46499 12.944 6.29249C13.08 6.07749 13.084 5.83349 13.021 5.60599" fill="#558B2F"/>
<path d="M3.2275 3.22399C3.5125 2.94249 4.0085 2.64499 4.735 3.02399C5.1725 3.25149 5.6815 3.51899 5.451 4.44399C5.309 5.01749 4.4735 5.32149 3.776 4.68249C3.5 4.42999 2.45 3.99149 3.2275 3.22399Z" fill="#F44336"/>
<path d="M5.61749 4.32C5.62649 4.1015 5.51399 3.835 5.47499 3.745C5.48149 3.876 5.59499 4.2075 5.07399 4.646C4.95371 4.7429 4.80969 4.80583 4.65687 4.82825C4.50406 4.85067 4.34803 4.83176 4.20499 4.7735C4.02149 4.701 3.75749 4.3975 3.56899 4.321C2.86749 4.039 3.16999 3.2875 3.26899 3.185C3.08667 3.31505 2.96305 3.51181 2.92499 3.7325C2.85999 4.0715 2.91999 4.3915 3.38499 4.7575C4.70499 5.7985 5.10999 5.171 5.25399 5.0115C5.43499 4.8165 5.60749 4.5615 5.61749 4.32Z" fill="#C62828"/>
<path d="M8.2175 2.41999C8.034 2.33399 7.509 2.35899 7.4075 2.79649C7.3465 3.05899 7.539 3.32499 7.72 3.29399C7.926 3.25899 7.8165 2.93749 7.94 2.84649C8.1285 2.70899 8.475 2.54149 8.2175 2.41999ZM4.345 3.05749C4.164 2.93749 3.585 2.93649 3.4115 3.37999C3.3065 3.64649 3.47 3.95499 3.6665 3.94999C3.89 3.94499 3.7825 3.68149 3.9685 3.51399C4.2035 3.30249 4.5985 3.22499 4.345 3.05749ZM4.259 7.06249C4.0875 6.95399 3.58 6.91099 3.37 7.30849C3.216 7.60099 3.4275 7.92349 3.611 7.91499C3.82 7.90499 3.75 7.57249 3.8835 7.49749C4.0875 7.38399 4.499 7.21499 4.259 7.06249ZM7.1745 10.391C6.991 10.305 6.4655 10.33 6.3645 10.7675C6.303 11.03 6.4955 11.2965 6.677 11.265C6.883 11.23 6.773 10.9085 6.897 10.8175C7.0845 10.68 7.431 10.5125 7.1745 10.391ZM11.8845 4.75599C11.7195 4.63899 11.1985 4.56999 11.021 4.98249C10.9145 5.22999 11.056 5.52649 11.2395 5.52749C11.4485 5.52849 11.397 5.19349 11.536 5.12599C11.7445 5.02499 12.116 4.92099 11.8845 4.75599Z" fill="white"/>
</svg>
